# xmcd CD database file
#
# Track frame offsets:
#	150
#	15207
#	33182
#	45872
#	65702
#	89175
#	107352
#	127122
#	154280
#	173115
#	194925
#	216897
#	237312
#	250930
#	276385
#
# Disc length: 3881 seconds
#
# Revision: 0
# Processed by: cddbd v1.5PL3 Copyright (c) Steve Scherf et al.
# Submitted via: CDex 1.51
#
DISCID=d80f270f
DTITLE=井上陽水 - ReMASTER extra-1
DYEAR=2001
DGENRE=Folk
TTITLE0=Music High
TTITLE1=プレゼント
TTITLE2=Flight
TTITLE3=HAWAIIAN LOVE SONG
TTITLE4=映画に行こう
TTITLE5=悲しき恋人
TTITLE6=東京ワシントンクラブ
TTITLE7=夢の背中
TTITLE8=Speedy Night
TTITLE9=Frozen Eyes
TTITLE10=BACK SIDE
TTITLE11=恋は自分勝手に
TTITLE12=紅すべり
TTITLE13=積み荷のない船
TTITLE14=Bright eyes
EXTD=YEAR: 2001
EXTT0=
EXTT1=
EXTT2=
EXTT3=
EXTT4=
EXTT5=
EXTT6=
EXTT7=
EXTT8=
EXTT9=
EXTT10=
EXTT11=
EXTT12=
EXTT13=
EXTT14=
PLAYORDER=
